<mxfile host="65bd71144e">
    <diagram id="d_1KVCZs_z3PoFrGrwAJ" name="Page-1">
        <mxGraphModel dx="1244" dy="746" grid="1" gridSize="10" guides="1" tooltips="1" connect="1" arrows="1" fold="1" page="1" pageScale="1" pageWidth="1169" pageHeight="827" math="0" shadow="0">
            <root>
                <mxCell id="0"/>
                <mxCell id="66" value="Listo el Ramen" parent="0" visible="0"/>
                <mxCell id="69" value="" style="shape=image;verticalLabelPosition=bottom;labelBackgroundColor=default;verticalAlign=top;aspect=fixed;imageAspect=0;image=https://cdn-icons-png.flaticon.com/512/917/917172.png;rotation=90;" vertex="1" parent="66">
                    <mxGeometry x="290" y="100" width="50" height="50" as="geometry"/>
                </mxCell>
                <mxCell id="73" value="" style="shape=image;verticalLabelPosition=bottom;labelBackgroundColor=default;verticalAlign=top;aspect=fixed;imageAspect=0;image=https://cdn-icons-png.flaticon.com/512/3361/3361866.png;container=0;" vertex="1" parent="66">
                    <mxGeometry x="290" y="140" width="50" height="50" as="geometry"/>
                </mxCell>
                <mxCell id="75" value="&lt;b&gt;&lt;font color=&quot;#c1ba6c&quot;&gt;on:listo_el_ra,men(mesa x)&lt;/font&gt;&lt;/b&gt;" style="text;html=1;strokeColor=none;fillColor=none;align=center;verticalAlign=middle;whiteSpace=wrap;rounded=0;shadow=0;sketch=0;hachureGap=4;jiggle=2;fillStyle=solid;curveFitting=1;strokeWidth=5;fontFamily=Architects Daughter;fontSource=https%3A%2F%2Ffonts.googleapis.com%2Fcss%3Ffamily%3DArchitects%2BDaughter;fontSize=20;" vertex="1" parent="66">
                    <mxGeometry x="320" y="110" width="300" height="30" as="geometry"/>
                </mxCell>
                <mxCell id="32" value="Entra Cliente" parent="0" visible="0"/>
                <mxCell id="67" value="" style="shape=image;verticalLabelPosition=bottom;labelBackgroundColor=default;verticalAlign=top;aspect=fixed;imageAspect=0;image=https://cdn-icons-png.flaticon.com/512/917/917172.png;" vertex="1" parent="32">
                    <mxGeometry x="450" y="210" width="50" height="50" as="geometry"/>
                </mxCell>
                <mxCell id="74" value="&lt;b&gt;&lt;font color=&quot;#c1ba6c&quot;&gt;on:entra_cliente&lt;/font&gt;&lt;/b&gt;" style="text;html=1;strokeColor=none;fillColor=none;align=center;verticalAlign=middle;whiteSpace=wrap;rounded=0;shadow=0;sketch=0;hachureGap=4;jiggle=2;fillStyle=solid;curveFitting=1;strokeWidth=5;fontFamily=Architects Daughter;fontSource=https%3A%2F%2Ffonts.googleapis.com%2Fcss%3Ffamily%3DArchitects%2BDaughter;fontSize=20;" vertex="1" parent="32">
                    <mxGeometry x="500" y="220" width="160" height="30" as="geometry"/>
                </mxCell>
                <mxCell id="20" value="Restaurante" parent="0"/>
                <mxCell id="38" value="Otaku" style="shape=umlActor;verticalLabelPosition=bottom;verticalAlign=top;html=1;outlineConnect=0;shadow=0;sketch=0;hachureGap=4;jiggle=2;fillStyle=solid;curveFitting=1;strokeColor=#6c8ebf;strokeWidth=1;fontFamily=Architects Daughter;fontSource=https%3A%2F%2Ffonts.googleapis.com%2Fcss%3Ffamily%3DArchitects%2BDaughter;fontSize=20;fillColor=#dae8fc;gradientColor=#7ea6e0;" vertex="1" parent="20">
                    <mxGeometry x="1010" y="460" width="30" height="60" as="geometry"/>
                </mxCell>
                <mxCell id="39" value="mesa 2" style="ellipse;whiteSpace=wrap;html=1;aspect=fixed;shadow=0;sketch=0;hachureGap=4;jiggle=2;fillStyle=solid;curveFitting=1;strokeColor=#FF3333;strokeWidth=1;fontFamily=Architects Daughter;fontSource=https%3A%2F%2Ffonts.googleapis.com%2Fcss%3Ffamily%3DArchitects%2BDaughter;fontSize=20;fillColor=default;gradientColor=none;" vertex="1" parent="20">
                    <mxGeometry x="680" y="120" width="80" height="80" as="geometry"/>
                </mxCell>
                <mxCell id="40" value="mesa 1" style="ellipse;whiteSpace=wrap;html=1;aspect=fixed;shadow=0;sketch=0;hachureGap=4;jiggle=2;fillStyle=solid;curveFitting=1;strokeColor=#FF3333;strokeWidth=1;fontFamily=Architects Daughter;fontSource=https%3A%2F%2Ffonts.googleapis.com%2Fcss%3Ffamily%3DArchitects%2BDaughter;fontSize=20;fillColor=default;gradientColor=none;" vertex="1" parent="20">
                    <mxGeometry x="680" y="280" width="80" height="80" as="geometry"/>
                </mxCell>
                <mxCell id="41" value="mesa 4" style="ellipse;whiteSpace=wrap;html=1;aspect=fixed;shadow=0;sketch=0;hachureGap=4;jiggle=2;fillStyle=solid;curveFitting=1;strokeColor=#FF3333;strokeWidth=1;fontFamily=Architects Daughter;fontSource=https%3A%2F%2Ffonts.googleapis.com%2Fcss%3Ffamily%3DArchitects%2BDaughter;fontSize=20;fillColor=default;gradientColor=none;" vertex="1" parent="20">
                    <mxGeometry x="870" y="280" width="80" height="80" as="geometry"/>
                </mxCell>
                <mxCell id="42" value="mesa 3" style="ellipse;whiteSpace=wrap;html=1;aspect=fixed;shadow=0;sketch=0;hachureGap=4;jiggle=2;fillStyle=solid;curveFitting=1;strokeColor=#FF3333;strokeWidth=1;fontFamily=Architects Daughter;fontSource=https%3A%2F%2Ffonts.googleapis.com%2Fcss%3Ffamily%3DArchitects%2BDaughter;fontSize=20;fillColor=default;gradientColor=none;" vertex="1" parent="20">
                    <mxGeometry x="870" y="120" width="80" height="80" as="geometry"/>
                </mxCell>
                <mxCell id="44" value="" style="whiteSpace=wrap;html=1;aspect=fixed;shadow=0;sketch=0;hachureGap=4;jiggle=2;fillStyle=solid;curveFitting=1;strokeColor=#FF3333;strokeWidth=1;fontFamily=Architects Daughter;fontSource=https%3A%2F%2Ffonts.googleapis.com%2Fcss%3Ffamily%3DArchitects%2BDaughter;fontSize=20;fillColor=default;gradientColor=none;" vertex="1" parent="20">
                    <mxGeometry x="66" y="110" width="220" height="220" as="geometry"/>
                </mxCell>
                <mxCell id="45" value="Cocinero" style="shape=umlActor;verticalLabelPosition=bottom;verticalAlign=top;html=1;outlineConnect=0;shadow=0;sketch=0;hachureGap=4;jiggle=2;fillStyle=solid;curveFitting=1;strokeColor=#d79b00;strokeWidth=1;fontFamily=Architects Daughter;fontSource=https%3A%2F%2Ffonts.googleapis.com%2Fcss%3Ffamily%3DArchitects%2BDaughter;fontSize=20;fillColor=#ffcd28;gradientColor=#ffa500;" vertex="1" parent="20">
                    <mxGeometry x="190" y="120" width="30" height="60" as="geometry"/>
                </mxCell>
                <mxCell id="46" value="" style="endArrow=none;dashed=1;html=1;dashPattern=1 3;strokeWidth=2;sketch=1;hachureGap=4;jiggle=2;curveFitting=1;fontFamily=Architects Daughter;fontSource=https%3A%2F%2Ffonts.googleapis.com%2Fcss%3Ffamily%3DArchitects%2BDaughter;fontSize=16;" edge="1" parent="20">
                    <mxGeometry width="50" height="50" relative="1" as="geometry">
                        <mxPoint x="60" y="400" as="sourcePoint"/>
                        <mxPoint x="440" y="400" as="targetPoint"/>
                    </mxGeometry>
                </mxCell>
                <mxCell id="47" value="" style="endArrow=none;dashed=1;html=1;dashPattern=1 3;strokeWidth=2;sketch=1;hachureGap=4;jiggle=2;curveFitting=1;fontFamily=Architects Daughter;fontSource=https%3A%2F%2Ffonts.googleapis.com%2Fcss%3Ffamily%3DArchitects%2BDaughter;fontSize=16;" edge="1" parent="20">
                    <mxGeometry width="50" height="50" relative="1" as="geometry">
                        <mxPoint x="520" y="400" as="sourcePoint"/>
                        <mxPoint x="1130" y="400" as="targetPoint"/>
                    </mxGeometry>
                </mxCell>
                <mxCell id="48" value="&lt;font style=&quot;font-size: 25px;&quot;&gt;Fuchinba Ramen&lt;/font&gt;" style="rounded=1;whiteSpace=wrap;html=1;shadow=0;sketch=0;hachureGap=4;jiggle=2;fillStyle=solid;curveFitting=1;strokeColor=#FF3333;strokeWidth=5;fontFamily=Architects Daughter;fontSource=https%3A%2F%2Ffonts.googleapis.com%2Fcss%3Ffamily%3DArchitects%2BDaughter;fontSize=20;fillColor=default;gradientColor=none;" vertex="1" parent="20">
                    <mxGeometry x="450" y="20" width="150" height="80" as="geometry"/>
                </mxCell>
                <mxCell id="54" value="" style="shape=image;verticalLabelPosition=bottom;labelBackgroundColor=default;verticalAlign=top;aspect=fixed;imageAspect=0;image=https://cdn-icons-png.flaticon.com/512/189/189956.png;" vertex="1" parent="20">
                    <mxGeometry x="110" y="128" width="52" height="52" as="geometry"/>
                </mxCell>
                <mxCell id="55" value="Luis" style="shape=umlActor;verticalLabelPosition=bottom;verticalAlign=top;html=1;outlineConnect=0;shadow=0;sketch=0;hachureGap=4;jiggle=2;fillStyle=solid;curveFitting=1;strokeColor=#d79b00;strokeWidth=1;fontFamily=Architects Daughter;fontSource=https%3A%2F%2Ffonts.googleapis.com%2Fcss%3Ffamily%3DArchitects%2BDaughter;fontSize=20;fillColor=#ffcd28;gradientColor=#ffa500;" vertex="1" parent="20">
                    <mxGeometry x="190" y="230" width="30" height="60" as="geometry"/>
                </mxCell>
                <mxCell id="56" value="&lt;font style=&quot;font-size: 20px;&quot;&gt;Cocina&lt;/font&gt;" style="text;html=1;align=center;verticalAlign=middle;resizable=0;points=[];autosize=1;strokeColor=none;fillColor=none;fontSize=38;fontFamily=Architects Daughter;sketch=1;hachureGap=4;jiggle=2;curveFitting=1;fontSource=https%3A%2F%2Ffonts.googleapis.com%2Fcss%3Ffamily%3DArchitects%2BDaughter;" vertex="1" parent="20">
                    <mxGeometry x="130" y="50" width="80" height="60" as="geometry"/>
                </mxCell>
                <mxCell id="57" value="" style="shape=image;verticalLabelPosition=bottom;labelBackgroundColor=default;verticalAlign=top;aspect=fixed;imageAspect=0;image=https://cdn-icons-png.flaticon.com/512/5016/5016804.png;" vertex="1" parent="20">
                    <mxGeometry x="110" y="220" width="50" height="50" as="geometry"/>
                </mxCell>
                <mxCell id="61" value="" style="group" vertex="1" connectable="0" parent="20">
                    <mxGeometry x="360" y="20" width="90" height="80" as="geometry"/>
                </mxCell>
                <mxCell id="60" value="" style="rounded=1;whiteSpace=wrap;html=1;shadow=0;sketch=0;hachureGap=4;jiggle=2;fillStyle=solid;curveFitting=1;strokeColor=#FF3333;strokeWidth=5;fontFamily=Architects Daughter;fontSource=https%3A%2F%2Ffonts.googleapis.com%2Fcss%3Ffamily%3DArchitects%2BDaughter;fontSize=20;fillColor=default;gradientColor=none;" vertex="1" parent="61">
                    <mxGeometry width="90" height="80" as="geometry"/>
                </mxCell>
                <mxCell id="59" value="" style="shape=image;verticalLabelPosition=bottom;labelBackgroundColor=default;verticalAlign=top;aspect=fixed;imageAspect=0;image=https://cdn-icons-png.flaticon.com/512/3361/3361866.png;" vertex="1" parent="61">
                    <mxGeometry x="10" y="5" width="70" height="70" as="geometry"/>
                </mxCell>
                <mxCell id="62" value="" style="shape=image;verticalLabelPosition=bottom;labelBackgroundColor=default;verticalAlign=top;aspect=fixed;imageAspect=0;image=https://cdn.iconscout.com/icon/free/png-256/tori-gate-1958589-1651732.png;" vertex="1" parent="20">
                    <mxGeometry x="390" y="244" width="170" height="170" as="geometry"/>
                </mxCell>
                <mxCell id="65" value="" style="shape=image;verticalLabelPosition=bottom;labelBackgroundColor=default;verticalAlign=top;aspect=fixed;imageAspect=0;image=https://cdn-icons-png.flaticon.com/512/4101/4101146.png;" vertex="1" parent="20">
                    <mxGeometry x="100" y="260" width="60" height="60" as="geometry"/>
                </mxCell>
                <mxCell id="76" value="Otaku" style="shape=umlActor;verticalLabelPosition=bottom;verticalAlign=top;html=1;outlineConnect=0;shadow=0;sketch=0;hachureGap=4;jiggle=2;fillStyle=solid;curveFitting=1;strokeColor=#6c8ebf;strokeWidth=1;fontFamily=Architects Daughter;fontSource=https%3A%2F%2Ffonts.googleapis.com%2Fcss%3Ffamily%3DArchitects%2BDaughter;fontSize=20;fillColor=#dae8fc;gradientColor=#7ea6e0;" vertex="1" parent="20">
                    <mxGeometry x="920" y="460" width="30" height="60" as="geometry"/>
                </mxCell>
            </root>
        </mxGraphModel>
    </diagram>
</mxfile>